<svg width="133" height="47" viewBox="0 0 133 47" fill="none" xmlns="http://www.w3.org/2000/svg">
<path d="M14.1328 3.00487C14.1506 2.96354 14.1742 2.9311 14.2112 2.90576C15.1285 2.2768 28.458 -6.19893 60.0339 9.0961C89.8598 23.5437 119.935 6.63636 125.339 3.25614C125.518 3.14413 125.819 3.43237 125.723 3.62162L120.291 14.3029C120.205 14.4712 120.322 14.6716 120.509 14.6742C121.922 14.694 126.848 14.7512 132.364 14.6772C132.593 14.6741 132.723 14.9372 132.556 15.0958C128.851 18.6274 102.705 42.8359 82.1771 42.8359C60.0339 42.8359 48.0422 37.611 33.8825 33.6597C19.9394 29.7689 13.229 28.4636 4.6979 29.8946C4.5139 29.9255 4.35817 29.7528 4.40924 29.5717L7.71232 17.8546L14.1328 3.00487Z" fill="#61453A"/>
<path d="M21.1586 8.45831C20.8226 10.3776 20.1777 13.6745 18.822 17.9351C16.0063 24.7303 20.8084 23.6219 22.1835 20.7987C22.9986 19.2398 23.8368 17.5481 23.8368 17.5481L28.1524 19.2195C28.1524 19.2195 27.805 21.2048 27.4498 22.8474C26.094 27.108 30.0463 26.5964 31.1394 23.449C31.6259 21.8304 33.8932 15.0721 34.5185 11.4982C35.4611 9.21121 32.2347 7.12321 30.775 10.8187C29.9947 12.1792 28.7277 15.1585 28.7277 15.1585C28.7277 15.1585 25.1655 13.8289 25.123 13.6846C24.984 13.3181 25.4204 12.373 25.4396 11.4889C25.2226 5.3723 21.6103 5.87707 21.1586 8.45831Z" fill="white" stroke="white" stroke-width="0.25" stroke-miterlimit="10"/>
<path d="M40.1735 13.2218C41.2719 11.0128 42.5331 10.6424 43.471 10.743C43.8755 10.7768 44.4257 11.6081 44.8465 12.4066C46.224 17.6655 43.7554 27.3374 43.319 27.987C41.8165 30.4386 39.1803 29.975 40.1816 27.3264C40.6494 25.7174 41.1503 24.2548 41.1503 24.2548L37.7378 23.8698C35.0563 29.1323 32.6454 26.929 34.0348 24.6556C35.521 21.9923 38.6875 16.1617 40.1735 13.2218ZM39.0455 19.9858L42.4095 20.5658C42.4095 20.5658 43.3438 14.5818 42.2932 15.2131L39.0455 19.9858Z" fill="white" stroke="white" stroke-width="0.25" stroke-miterlimit="10"/>
<path d="M57.5454 18.5238C57.9907 17.2564 57.065 14.3905 53.831 14.8684C49.147 14.9025 47.5264 23.1935 47.5264 23.1935C47.5264 23.1935 46.7479 27.2089 47.9765 29.9456C49.0931 32.5843 51.8017 32.5927 52.3276 32.6596C55.402 31.7258 54.3491 29.6565 53.8235 29.5898C53.1542 29.5553 52.2462 29.6662 51.5129 29.0621C50.2696 28.0498 50.4911 25.4803 50.7612 24.0983C51.3971 21.7742 52.7966 17.1588 55.028 18.2881C56.3671 20.0168 57.3067 19.2227 57.5454 18.5238Z" fill="white" stroke="white" stroke-width="0.25" stroke-miterlimit="10"/>
<path d="M60.6258 18.3107C59.8023 20.8516 60.8349 23.5277 58.7754 28.3645C58.2844 29.5459 57.0801 31.7125 56.9375 32.02C55.7966 34.2035 58.1132 35.4904 60.665 31.6754C61.2832 30.8024 61.9642 28.5691 61.9642 28.5691L63.0744 28.4432C63.0744 28.4432 64.0444 32.7552 64.2676 34.6025C64.5063 36.3852 67.6321 37.3992 67.6776 33.9005C67.5661 32.7013 67.1524 31.08 66.3741 29.0205C66.3741 29.0205 65.8657 27.5121 65.3739 27.3162C65.3739 27.3162 68.8617 23.8121 69.1942 22.4522C69.5424 21.0279 68.9072 20.0377 66.1799 22.3617C63.4529 24.6861 63.1361 25.4301 63.1361 25.4301C63.1361 25.4301 63.7847 22.5 63.72 20.2805C63.9569 17.9326 61.3383 16.2233 60.6258 18.3107Z" fill="white" stroke="white" stroke-width="0.25" stroke-miterlimit="10"/>
<path d="M78.1919 22.7256C77.0217 23.8975 76.2854 26.0975 76.3676 29.4261C76.5307 34.3945 78.5684 37.249 82.0476 36.6807C85.5269 36.1121 84.7076 33.5761 84.387 33.4921C84.1306 33.4249 84.0661 33.1268 82.6396 33.6689C81.2125 34.2106 80.1381 33.5779 79.2387 31.3728C78.6445 29.8805 78.3224 26.9816 79.3957 25.3624C79.7163 24.8831 80.0208 24.7515 80.1811 24.6526C80.8223 24.2574 81.4797 24.6404 81.5922 24.7401C83.389 26.0538 83.7407 24.5979 83.0985 23.3041C81.8309 21.4952 80.1472 21.1256 78.1919 22.7256Z" fill="white" stroke="white" stroke-width="0.25" stroke-miterlimit="10"/>
<path d="M85.9689 22.8007C85.9519 20.9147 87.8794 19.4609 88.557 23.678C89.394 26.403 89.1811 31.6721 89.5826 32.16C89.9841 32.6479 92.9734 31.9669 93.7827 31.6918C94.5919 31.4167 96.0832 31.7779 95.7461 32.5968C95.4733 33.4323 94.7019 33.5118 94.5413 33.6098C94.3805 33.7077 87.6243 35.731 87.3735 34.3841C87.1226 33.0369 87.1067 32.417 86.8538 30.1229C86.601 27.8286 85.9861 24.6869 85.9689 22.8007Z" fill="white" stroke="white" stroke-width="0.25" stroke-miterlimit="10"/>
<path d="M94.0714 21.1126C93.9247 19.7492 95.301 18.9161 96.1116 20.3801C96.7273 21.5149 97.4427 26.4436 98.448 28.516C98.9992 29.3551 100.133 29.5063 100.667 28.7364C101.298 27.5724 100.843 24.6645 100.453 22.3315C100.177 21.2139 99.8587 20.3597 99.8746 19.7357C100.116 17.6345 101.785 18.1324 102.563 20.2859C103.212 22.6856 103.888 26.5624 103.549 27.9407C103.226 29.2532 102.887 30.9107 101.203 31.316C100.765 31.4134 97.122 31.9437 95.8406 27.9165C94.6072 23.6924 94.218 22.476 94.0714 21.1126Z" fill="white" stroke="white" stroke-width="0.25" stroke-miterlimit="10"/>
<path d="M105.497 16.6115C107.737 15.2433 109.418 14.7739 110.731 15.2529C111.5 15.73 111.997 17.0412 111.79 18.17C111.55 19.1514 111.15 19.9522 111.15 19.9522C112.479 20.0875 113.453 21.4276 113.705 23.1814C113.958 24.9352 112.323 26.5859 109.282 27.6076C108.257 27.8991 107.168 27.8955 107.12 27.5354C107.088 26.8311 104.505 18.4418 104.505 18.4418C104.425 17.9339 104.152 17.3766 105.497 16.6115ZM106.426 18.1041L107.548 20.7596C107.548 20.7596 110.27 19.6549 109.949 18.1804C109.628 16.7063 107.915 17.5847 106.426 18.1041ZM107.934 22.807C107.934 22.807 108.704 26.0669 108.672 25.9195C108.656 25.7067 112.639 24.9051 111.79 22.807C110.94 20.7091 107.934 22.807 107.934 22.807Z" fill="white" stroke="white" stroke-width="0.25" stroke-miterlimit="10"/>
<path d="M14.229 1.77939C14.229 1.77939 14.4911 1.47476 14.9865 1.53823C15.4818 1.60171 15.3596 2.17914 15.1731 2.55536C14.9865 2.93159 10.2867 12.6665 6.88546 23.6472C3.4842 34.628 3.74425 46.3614 3.74425 47H0.00248713C-0.0485133 45.8506 0.660363 34.8033 4.40503 23.6472C8.14971 12.4911 13.7327 2.16712 14.229 1.77939Z" fill="#61453A"/>
</svg>
