<svg width="491" height="117" viewBox="0 0 491 117" fill="none" xmlns="http://www.w3.org/2000/svg">
<path d="M47.9361 42.8497C49.8438 43.7645 51.4336 45.1824 52.7054 47.1034C54.0681 48.9329 54.8857 50.8996 55.1582 53.0035C55.5216 55.1075 55.2944 57.1657 54.4769 59.1782C53.6593 61.1906 52.1149 62.7457 49.8438 63.8434C47.6636 64.9411 45.3925 65.2613 43.0306 64.8039C40.6687 64.3465 38.3976 63.7519 36.2173 63.0201C34.1279 62.1969 32.2202 61.5565 30.4942 61.0991C28.859 60.6418 27.5418 60.9619 26.5425 62.0596C25.6341 63.1573 25.2253 64.5295 25.3161 66.176C25.407 67.8226 25.7249 69.5149 26.27 71.253C26.9059 72.991 27.6326 74.6376 28.4502 76.1926C29.3586 77.7477 30.0854 78.9827 30.6305 79.8974C31.0847 80.6292 31.766 81.7727 32.6744 83.3278C33.6737 84.8828 34.5367 86.6209 35.2635 88.5419C35.9902 90.4629 36.4444 92.4753 36.6261 94.5793C36.8987 96.5917 36.4899 98.5127 35.3997 100.342C34.4005 102.172 32.629 103.773 30.0854 105.145C27.5418 106.608 23.908 107.615 19.1842 108.163C13.3702 108.804 9.05514 108.438 6.239 107.066C3.51369 105.785 1.69683 103.956 0.788391 101.577C-0.0291997 99.1988 -0.210887 96.546 0.243331 93.6188C0.788391 90.6001 1.46972 87.8101 2.28731 85.2487C3.37743 81.2238 3.92249 77.1074 3.92249 72.8995C3.92249 69.0575 3.83165 63.9806 3.64996 57.6688C3.46827 51.357 3.01406 44.542 2.28731 37.224C1.74225 31.9184 1.60598 27.3903 1.87851 23.6398C2.15104 19.7978 2.87779 16.5504 4.05875 13.8976C5.23972 11.2448 6.8749 9.1409 8.9643 7.58581C11.1445 5.93925 13.779 4.65859 16.8677 3.74383C20.0472 2.82907 23.7718 2.14301 28.0414 1.68563C32.3111 1.13678 36.399 1.22825 40.3053 1.96006C44.3024 2.69186 47.7544 4.15547 50.6614 6.35089C53.5684 8.45483 55.249 11.7022 55.7032 16.0931C56.1575 20.4839 55.7941 23.96 54.6131 26.5213C53.523 28.9911 51.8878 30.8207 49.7076 32.0098C47.6182 33.1076 45.0746 33.7021 42.0767 33.7936C39.0789 33.8851 35.9902 33.7021 32.8107 33.2448C29.5403 32.8789 26.815 33.0161 24.6348 33.6564C22.4545 34.2967 20.8194 35.2115 19.7292 36.4007C18.6391 37.5899 18.0486 38.962 17.9578 40.5171C17.9578 42.0722 18.5029 43.4901 19.593 44.7707C20.6831 46.0514 22.4091 46.5088 24.7711 46.1429C27.133 45.777 29.722 45.2281 32.5382 44.4963C35.3543 43.673 38.125 42.9869 40.8503 42.4381C43.6665 41.7978 46.0284 41.935 47.9361 42.8497Z" fill="black"/>
<path d="M127.543 95.2654C129.178 96.0886 129.859 97.2321 129.587 98.6957C129.405 100.159 128.587 101.669 127.134 103.224C125.68 104.779 123.727 106.242 121.274 107.615C118.913 109.078 116.278 110.176 113.371 110.908C110.555 111.731 107.693 112.051 104.786 111.868C101.879 111.685 99.1541 110.771 96.6105 109.124C95.157 108.118 94.0214 106.38 93.2038 103.91C92.4771 101.44 91.932 98.5127 91.5686 95.1281C91.2053 91.6521 91.0236 87.8558 91.0236 83.7394C91.0236 79.5315 91.069 75.2322 91.1599 70.8413C90.9782 70.018 90.6602 69.2405 90.206 68.5087C89.7518 67.7769 88.8433 67.411 87.4807 67.411C86.3906 67.3195 85.4367 67.4567 84.6191 67.8226C83.8924 68.1885 83.3473 69.0118 82.9839 70.2925C81.5304 78.4338 80.2132 86.255 79.0323 93.756C77.9421 101.166 76.8066 107.523 75.6256 112.829C75.1714 114.841 73.6725 116.122 71.1289 116.671C68.6761 117.22 65.8145 117.082 62.5442 116.259C59.3647 115.527 56.1397 114.201 52.8694 112.28C49.599 110.359 46.9645 107.935 44.966 105.008C43.8759 103.544 43.6033 101.897 44.1484 100.068C44.6026 98.3298 45.4656 96.4088 46.7374 94.3049C48.0092 92.1094 49.5081 89.6853 51.2342 87.0325C52.8693 84.3797 54.4137 81.4525 55.8672 78.2509C57.6841 73.7685 59.5463 68.3715 61.4541 62.0596C63.3618 55.7478 65.2695 49.2988 67.1772 42.7125C69.1757 36.1263 71.1743 29.8602 73.1729 23.9142C75.2623 17.9683 77.4879 13.1658 79.8498 9.5068C81.3033 7.12844 82.8931 5.52761 84.6191 4.70433C86.3452 3.78957 88.0712 3.37793 89.7972 3.46941C91.5232 3.56088 93.1584 4.01826 94.7028 4.84154C96.2471 5.66483 97.6097 6.53384 98.7907 7.4486C99.9717 8.36336 100.926 9.18664 101.652 9.91845C102.379 10.6503 102.742 11.0162 102.742 11.0162H102.606C105.241 13.8519 107.148 17.7854 108.329 22.8165C109.601 27.8477 110.51 33.2905 111.055 39.145C111.6 44.9079 111.963 50.7166 112.145 56.5711C112.417 62.4255 112.826 67.5939 113.371 72.0762C114.007 77.1074 114.779 80.9951 115.688 83.7394C116.687 86.4837 117.777 88.5876 118.958 90.0512C120.139 91.4234 121.456 92.4296 122.91 93.0699C124.454 93.7103 125.998 94.4421 127.543 95.2654ZM91.2961 51.4942C91.4778 47.2863 91.4778 43.9932 91.2961 41.6148C91.2053 39.145 91.069 37.3154 90.8873 36.1263C90.7965 35.7604 90.5694 35.5774 90.206 35.5774C89.8426 35.4859 89.6155 35.6231 89.5247 35.989C89.2521 37.0868 88.8888 38.3217 88.4346 39.6938C87.9803 41.066 87.5261 42.4381 87.0719 43.8102C86.7085 45.1824 86.3906 46.5545 86.118 47.9266C85.9364 49.2073 85.8909 50.3507 85.9818 51.357C86.0726 52.6376 86.6177 53.4609 87.617 53.8268C88.6162 54.3757 89.4338 54.3757 90.0697 53.8268C90.7965 53.278 91.2053 52.5004 91.2961 51.4942Z" fill="black"/>
<path d="M188.997 75.0949C190.178 77.2904 190.996 79.5773 191.45 81.9556C191.904 84.2425 192.04 86.4837 191.859 88.6791C191.768 90.8745 191.405 92.9785 190.769 94.9909C190.133 96.9119 189.315 98.5585 188.316 99.9306C187.226 101.394 185.136 102.355 182.048 102.812C179.05 103.361 175.28 103.635 170.738 103.635C166.286 103.727 161.29 103.635 155.748 103.361C150.298 103.178 144.666 102.995 138.852 102.812C133.855 102.629 130.312 101.44 128.223 99.2445C126.224 97.0491 125.043 94.3506 124.68 91.1489C124.407 87.8558 124.68 84.334 125.498 80.5835C126.315 76.7415 127.087 73.2197 127.814 70.018C128.632 66.7249 129.04 63.3403 129.04 59.8642C129.131 56.3881 128.995 52.9578 128.632 49.5732C128.359 46.1886 127.86 42.8955 127.133 39.6938C126.497 36.4007 125.861 33.3362 125.225 30.5005C124.498 27.5733 123.999 25.1949 123.726 23.3654C123.454 21.4444 123.363 19.7978 123.454 18.4257C123.544 16.9621 123.817 15.6814 124.271 14.5837C124.816 13.486 125.452 12.3426 126.179 11.1534C126.997 9.96419 128.268 8.95795 129.994 8.13467C131.72 7.21991 133.446 6.53384 135.172 6.07647C137.262 5.43614 139.487 4.93302 141.849 4.56712C144.575 4.10974 146.846 3.83531 148.663 3.74383C150.48 3.65236 151.842 3.92679 152.751 4.56712C153.75 5.11597 154.34 6.07647 154.522 7.4486C154.704 8.82074 154.567 10.7417 154.113 13.2116C153.841 14.9496 153.432 16.8706 152.887 18.9745C152.342 21.0785 151.751 23.5941 151.115 26.5213C150.57 29.4485 149.98 32.8789 149.344 36.8123C148.799 40.7458 148.345 45.3196 147.981 50.5337C147.255 59.9557 148.254 67.1823 150.979 72.2135C153.795 77.2446 158.565 79.3028 165.287 78.3881C168.648 77.9307 171.555 77.1074 174.008 75.9182C176.461 74.6376 178.596 73.5856 180.412 72.7623C182.32 71.939 183.955 71.5731 185.318 71.6646C186.681 71.7561 187.907 72.8995 188.997 75.0949Z" fill="black"/>
<path d="M263.246 75.0949C264.427 77.2904 265.244 79.5773 265.698 81.9556C266.153 84.2425 266.289 86.4837 266.107 88.6791C266.016 90.8745 265.653 92.9785 265.017 94.9909C264.381 96.9119 263.564 98.5585 262.564 99.9306C261.474 101.394 259.385 102.355 256.296 102.812C253.298 103.361 249.528 103.635 244.986 103.635C240.535 103.727 235.538 103.635 229.997 103.361C224.546 103.178 218.914 102.995 213.1 102.812C208.104 102.629 204.561 101.44 202.471 99.2445C200.473 97.0491 199.292 94.3506 198.929 91.1489C198.656 87.8558 198.929 84.334 199.746 80.5835C200.564 76.7415 201.336 73.2197 202.063 70.018C202.88 66.7249 203.289 63.3403 203.289 59.8642C203.38 56.3881 203.244 52.9578 202.88 49.5732C202.608 46.1886 202.108 42.8955 201.381 39.6938C200.745 36.4007 200.109 33.3362 199.474 30.5005C198.747 27.5733 198.247 25.1949 197.975 23.3654C197.702 21.4444 197.611 19.7978 197.702 18.4257C197.793 16.9621 198.066 15.6814 198.52 14.5837C199.065 13.486 199.701 12.3426 200.427 11.1534C201.245 9.96419 202.517 8.95795 204.243 8.13467C205.969 7.21991 207.695 6.53384 209.421 6.07647C211.51 5.43614 213.736 4.93302 216.098 4.56712C218.823 4.10974 221.094 3.83531 222.911 3.74383C224.728 3.65236 226.091 3.92679 226.999 4.56712C227.998 5.11597 228.589 6.07647 228.771 7.4486C228.952 8.82074 228.816 10.7417 228.362 13.2116C228.089 14.9496 227.68 16.8706 227.135 18.9745C226.59 21.0785 226 23.5941 225.364 26.5213C224.819 29.4485 224.228 32.8789 223.593 36.8123C223.047 40.7458 222.593 45.3196 222.23 50.5337C221.503 59.9557 222.502 67.1823 225.228 72.2135C228.044 77.2446 232.813 79.3028 239.536 78.3881C242.897 77.9307 245.804 77.1074 248.257 75.9182C250.709 74.6376 252.844 73.5856 254.661 72.7623C256.569 71.939 258.204 71.5731 259.567 71.6646C260.929 71.7561 262.156 72.8995 263.246 75.0949Z" fill="black"/>
<path d="M328.744 44.0704C330.733 45.8331 332.376 48.2674 333.674 51.3735C335.07 54.3841 335.932 57.7745 336.262 61.5446C336.689 65.2193 336.586 69.0807 335.953 73.1286C335.319 77.1765 334.066 80.9754 332.193 84.5252C330.223 88.1704 327.68 91.6155 324.565 94.8603C321.45 98.1052 317.863 100.813 313.804 102.984C309.841 105.156 305.506 106.503 300.8 107.025C296.092 107.643 291.209 107.1 286.15 105.396C282.141 104.091 278.626 101.779 275.605 98.4584C272.679 95.1392 270.29 91.1989 268.438 86.6376C266.682 81.9809 265.507 76.945 264.914 71.5301C264.224 66.114 264.255 60.6102 265.006 55.0187C265.757 49.4272 267.178 43.9887 269.267 38.7034C271.454 33.3227 274.4 28.4824 278.106 24.1826C280.839 20.8365 283.758 17.9272 286.862 15.4547C290.063 12.8868 293.351 10.996 296.725 9.78216C300.196 8.47297 303.751 7.98562 307.39 8.32011C311.127 8.55922 314.944 9.90981 318.841 12.3719C322.166 14.5372 324.768 16.9834 326.647 19.7103C328.622 22.4384 329.972 25.2554 330.698 28.1613C331.424 31.0672 331.575 33.9177 331.151 36.7129C330.823 39.5092 330.021 41.9617 328.744 44.0704ZM304.823 57.102C306.279 55.8646 307.401 54.5265 308.189 53.0877C308.976 51.6489 309.763 50.2584 310.55 48.9162C307.795 47.0475 305.673 44.6073 304.181 41.5955C302.691 38.487 302.303 35.4888 303.015 32.6006C300.996 32.962 298.822 34.1423 296.491 36.1415C294.163 38.0441 292.212 40.2894 290.641 42.8773C289.07 45.4652 288.12 48.1573 287.792 50.9537C287.561 53.7512 288.532 56.2256 290.707 58.3767C291.938 59.4541 293.271 60.1465 294.705 60.4538C296.042 60.8565 297.528 60.8748 299.164 60.5087C300.895 60.1437 302.781 59.0082 304.823 57.102Z" fill="black"/>
<path d="M395.958 9.8446C398.365 9.19826 400.955 9.13357 403.728 9.65053C406.502 10.1675 409.021 11.7435 411.285 14.3786C413.55 16.9172 415.317 20.7532 416.587 25.8868C417.952 31.0215 418.429 37.8835 418.018 46.4727C417.602 55.4481 416.621 63.6923 415.075 71.2053C413.626 78.623 411.329 85.0163 408.184 90.3852C405.038 95.7541 400.951 99.9044 395.922 102.836C390.893 105.768 384.639 107.236 377.159 107.24C370.925 107.26 365.518 106.421 360.94 104.723C356.456 103.026 352.706 100.373 349.689 96.7628C346.769 93.0575 344.535 88.3466 342.987 82.6302C341.44 76.8173 340.531 69.9017 340.263 61.8835C339.99 54.155 340.716 46.9216 342.443 40.1833C344.171 33.3485 346.507 27.5833 349.451 22.8879C352.397 18.0959 355.658 14.708 359.235 12.7242C362.909 10.6449 366.554 10.545 370.172 12.4242C371.315 12.9211 372.549 13.8054 373.874 15.077C375.296 16.2533 376.424 17.8122 377.259 19.7538C378.192 21.6 378.592 23.8259 378.458 26.4315C378.421 29.0383 377.42 32.0195 375.454 35.375C373.682 38.5399 372.535 41.6641 372.011 44.7477C371.583 47.8326 371.591 50.633 372.035 53.1492C372.478 55.6653 373.263 57.7511 374.39 59.4066C375.615 60.9667 377.041 61.8533 378.668 62.0665C382.018 62.494 384.533 61.0281 386.211 57.669C387.985 54.3111 388.166 48.3746 386.754 39.8595C383.842 22.1523 386.91 12.1474 395.958 9.8446Z" fill="black"/>
<path d="M471.304 4.97795C476.294 4.74966 480.174 4.99055 482.945 5.7006C485.717 6.31411 487.719 7.20782 488.949 8.38173C490.18 9.45909 490.833 10.7225 490.908 12.1719C491.079 13.6224 491.011 15.0218 490.704 16.3699C489.887 19.8362 486.927 22.3105 481.823 23.7927C476.721 25.1784 469.949 25.9641 461.507 26.1499C461.219 26.1464 461.123 26.1452 461.219 26.1464C459.105 26.41 457.183 26.7244 455.452 27.0893C453.72 27.4543 452.747 28.4562 452.532 30.0952C452.419 31.2526 452.628 33.4278 453.157 36.621C453.783 39.8153 454.544 43.5907 455.441 47.9472C456.435 52.2083 457.424 56.8073 458.408 61.7442C459.488 66.6823 460.379 71.4732 461.08 76.1169C461.782 80.6641 462.249 84.8704 462.481 88.7359C462.714 92.6013 462.478 95.6402 461.776 97.8525C460.775 100.737 459.306 102.892 457.368 104.316C455.431 105.644 453.116 106.533 450.425 106.983C447.827 107.53 444.948 107.736 441.785 107.601C438.717 107.563 435.553 107.476 432.294 107.339C429.803 107.212 427.655 106.51 425.851 105.232C424.142 104.052 422.966 102.445 422.324 100.409C421.587 98.2753 421.477 95.9081 421.994 93.3073C422.512 90.6098 423.751 87.8247 425.71 84.9518C427.669 82.079 429.352 78.382 430.759 73.8608C432.264 69.2442 433.53 64.5764 434.556 59.8573C435.583 55.1383 436.365 50.7059 436.904 46.5603C437.539 42.4158 437.919 39.2821 438.045 37.1593C438.269 34.941 438.246 33.2026 437.976 31.9439C437.804 30.5899 437.53 29.6209 437.155 29.0369C436.781 28.3563 436.356 27.9165 435.879 27.7175C435.498 27.5197 435.164 27.419 434.876 27.4155C432.089 27.864 429.59 28.2678 427.379 28.6269C425.264 28.9871 423.487 29.1584 422.049 29.1407C420.516 29.0252 419.323 28.6243 418.47 27.9378C417.521 27.2502 416.819 26.0345 416.364 24.2907C415.824 21.87 415.476 19.355 415.322 16.7459C415.073 14.039 415.252 11.5305 415.861 9.22044C416.375 6.81265 417.362 4.79695 418.824 3.17333C420.191 1.45199 422.124 0.413567 424.623 0.058055C426.16 -0.116158 428.17 0.101717 430.655 0.711681C433.236 1.32283 436.39 2.0376 440.119 2.856C443.944 3.57904 448.395 4.21319 453.469 4.75847C458.64 5.30493 464.585 5.37809 471.304 4.97795Z" fill="black"/>
</svg>
