<svg xmlns="http://www.w3.org/2000/svg" width="651" height="231" fill="none" viewBox="0 0 651 231"><path fill="#fff" d="M64.98 102.486q3.78 1.8 6.3 5.58 2.7 3.6 3.24 7.74.72 4.14-.9 8.1t-6.12 6.12q-4.32 2.16-9 1.26t-9-2.34q-4.14-1.62-7.56-2.52-3.24-.9-5.22 1.26-1.8 2.16-1.62 5.4t1.26 6.66q1.26 3.42 2.88 6.48 1.8 3.06 2.88 4.86.9 1.44 2.7 4.5 1.98 3.06 3.42 6.84t1.8 7.92q.54 3.96-1.62 7.56-1.98 3.6-7.02 6.3-5.04 2.88-14.4 3.96-11.52 1.26-17.1-1.44-5.4-2.52-7.2-7.2-1.62-4.68-.72-10.44 1.08-5.94 2.7-10.98a61.3 61.3 0 0 0 2.16-16.2q0-7.56-.36-19.98t-1.8-26.82q-1.08-10.44-.54-17.82.54-7.56 2.88-12.78t6.48-8.28q4.32-3.24 10.44-5.04 6.3-1.8 14.76-2.7 8.46-1.08 16.2.36 7.92 1.44 13.68 5.76 5.76 4.14 6.66 12.78t-1.44 13.68q-2.16 4.86-6.48 7.2-4.14 2.16-10.08 2.34T45 89.886q-6.48-.72-10.8.54t-6.48 3.6-2.34 5.4q0 3.06 2.16 5.58t6.84 1.8 10.26-2.16q5.58-1.62 10.98-2.7 5.58-1.26 9.36.54m105.157 68.76q3.24 1.62 2.7 4.5-.36 2.88-3.24 5.94t-7.74 5.76q-4.68 2.88-10.44 4.32-5.58 1.62-11.34 1.26t-10.8-3.6q-2.88-1.98-4.5-6.84-1.44-4.86-2.16-11.52-.72-6.84-.72-14.94 0-8.28.18-16.92-.36-1.62-1.26-3.06t-3.6-1.44q-2.16-.18-3.78.54-1.44.72-2.16 3.24a1514 1514 0 0 0-5.22 30.78q-2.16 14.58-4.5 25.02-.9 3.96-5.94 5.04-4.86 1.08-11.34-.54-6.3-1.44-12.78-5.22t-10.44-9.54q-2.16-2.88-1.08-6.48.9-3.42 3.42-7.56 2.52-4.32 5.94-9.54 3.24-5.22 6.12-11.52 3.6-8.82 7.38-21.24t7.56-25.38a871 871 0 0 1 7.92-24.66q4.14-11.7 8.82-18.9 2.88-4.68 6.3-6.3 3.42-1.8 6.84-1.62t6.48 1.8 5.4 3.42 3.78 3.24l1.44 1.44h-.18q5.22 5.58 7.56 15.48 2.52 9.9 3.6 21.42 1.08 11.34 1.44 22.86.54 11.52 1.62 20.34 1.26 9.9 3.06 15.3 1.98 5.4 4.32 8.28 2.34 2.7 5.22 3.96 3.06 1.26 6.12 2.88m-47.88-57.42q.36-8.28 0-12.96-.18-4.86-.54-7.2-.18-.72-.9-.72-.72-.18-.9.54-.54 2.16-1.44 4.86l-1.8 5.4q-.72 2.7-1.26 5.4-.36 2.52-.18 4.5.18 2.52 2.16 3.24 1.98 1.08 3.24 0 1.44-1.08 1.62-3.06m129.058 30.96q2.34 4.32 3.24 9 .9 4.5.54 8.82-.18 4.32-1.44 8.28-1.26 3.78-3.24 6.48-2.16 2.88-8.28 3.78-5.94 1.08-14.94 1.08-8.82.18-19.8-.36-10.8-.36-22.32-.72-9.9-.36-14.04-4.68-3.96-4.32-4.68-10.62-.54-6.48 1.08-13.86 1.62-7.56 3.06-13.86a54.7 54.7 0 0 0 1.62-13.32q.18-6.84-.54-13.5-.54-6.66-1.98-12.96-1.26-6.48-2.52-12.06-1.44-5.76-1.98-9.36-.54-3.78-.36-6.48.18-2.88 1.08-5.04 1.08-2.16 2.52-4.5 1.62-2.34 5.04-3.96 3.42-1.8 6.84-2.7 4.14-1.26 8.82-1.98 5.4-.9 9-1.08t5.4 1.08q1.98 1.08 2.34 3.78t-.54 7.56q-.54 3.42-1.62 7.56t-2.34 9.9q-1.08 5.76-2.34 13.5-1.08 7.74-1.8 18-1.44 18.54 3.96 28.44 5.58 9.9 18.9 8.1 6.66-.9 11.52-3.24 4.86-2.52 8.46-4.14 3.78-1.62 6.48-1.44t4.86 4.5m98.079 0q2.34 4.32 3.24 9 .9 4.5.54 8.82-.18 4.32-1.44 8.28-1.26 3.78-3.24 6.48-2.16 2.88-8.28 3.78-5.94 1.08-14.94 1.08-8.82.18-19.8-.36-10.8-.36-22.32-.72-9.9-.36-14.04-4.68-3.96-4.32-4.68-10.62-.54-6.48 1.08-13.86 1.62-7.56 3.06-13.86a54.7 54.7 0 0 0 1.62-13.32q.18-6.84-.54-13.5-.54-6.66-1.98-12.96-1.26-6.48-2.52-12.06-1.44-5.76-1.98-9.36-.54-3.78-.36-6.48.18-2.88 1.08-5.04 1.08-2.16 2.52-4.5 1.62-2.34 5.04-3.96 3.42-1.8 6.84-2.7 4.14-1.26 8.82-1.98 5.4-.9 9-1.08t5.4 1.08q1.98 1.08 2.34 3.78t-.54 7.56q-.54 3.42-1.62 7.56t-2.34 9.9q-1.08 5.76-2.34 13.5-1.08 7.74-1.8 18-1.44 18.54 3.96 28.44 5.58 9.9 18.9 8.1 6.66-.9 11.52-3.24 4.86-2.52 8.46-4.14 3.78-1.62 6.48-1.44t4.86 4.5m86.521-40.698q3.94 3.468 6.512 9.58 2.766 5.924 3.418 13.343.846 7.23-.408 15.196t-4.966 14.95q-3.904 7.173-10.077 13.558-6.172 6.385-14.215 10.657-7.852 4.275-17.178 5.301-9.328 1.215-19.351-2.137-7.944-2.567-13.93-9.101-5.797-6.531-9.468-15.507-3.478-9.163-4.655-19.818-1.366-10.657.122-21.66a90.5 90.5 0 0 1 5.629-21.403q4.334-10.587 11.676-19.049 5.415-6.585 11.566-11.45 6.344-5.052 13.028-7.44 6.878-2.577 14.089-1.918 7.404.47 15.125 5.315 6.59 4.26 10.313 9.627 3.912 5.367 5.351 11.086 1.438 5.718.598 11.218-.65 5.502-3.179 9.652m-31.6 17.095q2.886-2.435 4.446-5.266a216 216 0 0 1 3.12-5.473q-5.458-3.677-8.413-9.603-2.952-6.116-1.54-11.8-4 .712-8.618 4.645a34.4 34.4 0 0 0-7.728 8.837q-3.114 5.091-3.763 10.594-.46 5.505 3.85 9.738 2.44 2.12 5.281 2.725 2.65.792 5.89.072 3.43-.719 7.475-4.469m120.386-61.994q4.768-1.27 10.264-.254t9.982 6.202q4.489 4.996 7.003 15.097 2.705 10.104 1.891 27.005-.824 17.661-3.887 32.445-2.87 14.596-9.104 25.16-6.232 10.565-16.197 16.334-9.963 5.768-24.785 5.777-12.352.04-21.425-3.302-8.883-3.339-14.861-10.442-5.785-7.291-8.854-18.54-3.065-11.437-3.598-27.216-.542-15.207 2.88-28.466 3.425-13.45 9.258-22.689 5.837-9.429 12.923-13.333 7.28-4.092 14.447-.393 2.266.977 4.891 3.48 2.817 2.314 4.472 6.135 1.848 3.633 1.584 8.76-.074 5.13-3.97 11.732-3.51 6.228-4.547 12.295-.848 6.07.031 11.021t3.112 8.209q2.426 3.07 5.651 3.489 6.638.841 9.964-5.768 3.515-6.608.716-23.363-5.769-34.844 12.159-39.374m99.528-6.384q9.888-.45 15.378.948 5.494 1.207 7.93 3.517 2.44 2.12 2.589 4.972.339 2.855-.27 5.508-1.618 6.82-11.731 9.737-10.11 2.727-26.837 3.092l-.38-.004q-4.188.518-7.619 1.236-3.43.72-3.857 3.944-.223 2.277.827 8.56 1.24 6.285 3.016 14.858a570 570 0 0 1 3.92 18.1 291 291 0 0 1 3.529 18.854q1.39 8.947 1.851 16.554.46 7.606-.932 11.959-1.981 5.676-5.823 8.48-3.838 2.613-9.171 3.498-5.146 1.077-11.413.811a426 426 0 0 1-12.536-.344q-4.938-.25-8.511-2.764-3.387-2.322-4.66-6.327-1.46-4.198-.436-9.316 1.027-5.308 4.909-10.961t6.67-14.55a187 187 0 0 0 5.015-18.37q2.034-9.285 3.102-17.443 1.257-8.156 1.508-12.332.442-4.365-.092-6.842-.341-2.665-1.085-3.814-.741-1.339-1.685-1.73-.755-.39-1.325-.397-5.523.883-9.904 1.59-4.19.708-7.04.674-3.038-.228-4.728-1.578-1.881-1.354-2.781-4.785a62 62 0 0 1-1.378-9.897q-.493-5.327.713-9.872 1.017-4.738 3.914-7.933 2.709-3.387 7.66-4.087 3.045-.343 7.968.858 5.114 1.203 12.501 2.813 7.58 1.422 17.636 2.495 10.245 1.076 23.558.288"/></svg>